<svg width="32" height="32" viewBox="0 0 32 32" fill="none" xmlns="http://www.w3.org/2000/svg">
<g clip-path="url(#clip0_25_28)">
<path d="M8.15762 13.2539L9.27692 7.13413H11.6095L9.53809 16.8937H7.09831L5.79105 11.3303L4.51071 16.8937H2.07754L0 7.13413H2.33918L3.45848 13.2539L4.79927 7.13413H6.79652L8.15762 13.2539Z" fill="#0079CF"/>
<path d="M15.0344 16.8932H12.6886V7.13413H15.0344V16.8932Z" fill="#0079CF"/>
<path d="M21.7039 14.2995C21.7039 13.9552 21.5825 13.687 21.3384 13.4952C21.0947 13.303 20.6673 13.1042 20.0547 12.8987C19.4422 12.6933 18.942 12.494 18.5534 12.3022C17.2891 11.6812 16.6562 10.8278 16.6562 9.74156C16.6562 9.20081 16.814 8.72381 17.129 8.31057C17.444 7.89732 17.8898 7.5757 18.466 7.34523C19.0426 7.11476 19.6901 7 20.4099 7C21.1296 7 21.7403 7.12515 22.2966 7.37546C22.853 7.62577 23.2851 7.98186 23.5935 8.44469C23.9019 8.90705 24.0558 9.43553 24.0558 10.0301H21.7101C21.7101 9.63247 21.5887 9.32407 21.3445 9.10493C21.1008 8.88627 20.7716 8.7767 20.356 8.7767C19.9404 8.7767 19.6042 8.86974 19.3605 9.05487C19.1168 9.24 18.9949 9.47614 18.9949 9.76187C18.9949 10.0122 19.1291 10.2389 19.3973 10.4424C19.6656 10.646 20.1369 10.8557 20.8118 11.0724C21.4862 11.2892 22.0406 11.5225 22.4742 11.7728C23.5288 12.3802 24.0558 13.2185 24.0558 14.2863C24.0558 15.1401 23.7342 15.8103 23.0905 16.2972C22.4468 16.7841 21.5646 17.0278 20.4429 17.0278C19.6519 17.0278 18.9359 16.8862 18.2946 16.6023C17.6537 16.3185 17.171 15.9298 16.8466 15.4358C16.5221 14.9418 16.3606 14.3732 16.3606 13.7299H18.7201C18.7201 14.2527 18.8551 14.6381 19.1258 14.8861C19.3964 15.134 19.8351 15.2582 20.4429 15.2582C20.8316 15.2582 21.1391 15.1746 21.3648 15.007C21.5901 14.8393 21.7039 14.6032 21.7039 14.2995Z" fill="#0079CF"/>
<path d="M31.3157 12.7509H27.6159V15.0835H31.9863V16.8932H25.2635V7.13413H32V8.9505H27.6163V11.0082H31.3161L31.3157 12.7509Z" fill="#0079CF"/>
<path d="M6.08333 22.9899H3.56333V25.5728H2V19.0881H6.33734V20.2953H3.56333V21.7871H6.08333V22.9899Z" fill="#0079CF"/>
<path d="M10.1551 23.2797H9.30931V25.5728H7.74598V19.0881H10.2974C11.0664 19.0881 11.6678 19.2584 12.1017 19.5997C12.5346 19.9409 12.7519 20.4228 12.7519 21.046C12.7519 21.4964 12.6612 21.8709 12.4779 22.1668C12.2946 22.4636 12.01 22.7036 11.6207 22.8878L12.9745 25.5056V25.5728H11.3003L10.1551 23.2797ZM9.30931 22.0769H10.2974C10.5942 22.0769 10.8176 21.9983 10.9678 21.8421C11.1179 21.6858 11.193 21.4676 11.193 21.1883C11.193 20.909 11.117 20.689 10.966 20.5293C10.8142 20.3704 10.5916 20.291 10.2974 20.291H9.30931V22.0769Z" fill="#0079CF"/>
<path d="M18.4711 22.8206H16.0131V24.3699H18.9171V25.5728H14.4498V19.0881H18.925V20.2953H16.0131V21.6614H18.4711V22.8206Z" fill="#0079CF"/>
<path d="M23.744 23.8497C23.744 23.621 23.6628 23.4421 23.5013 23.3146C23.3398 23.1881 23.0553 23.0554 22.6485 22.9184C22.2409 22.7822 21.9092 22.6495 21.6508 22.5221C20.8102 22.1092 20.3904 21.5427 20.3904 20.8208C20.3904 20.4612 20.4951 20.1452 20.7046 19.8703C20.9132 19.5953 21.2091 19.3823 21.5932 19.2287C21.9755 19.0759 22.4067 19 22.8842 19C23.3617 19 23.7684 19.0829 24.1385 19.2488C24.5078 19.4155 24.7949 19.652 25.0001 19.9593C25.2052 20.2665 25.3073 20.6174 25.3073 21.012H23.7484C23.7484 20.7484 23.6672 20.5433 23.5057 20.3975C23.3442 20.2526 23.1251 20.1793 22.8493 20.1793C22.5735 20.1793 22.3491 20.2412 22.1876 20.3643C22.0262 20.4874 21.945 20.6436 21.945 20.8339C21.945 20.9998 22.034 21.1499 22.213 21.2852C22.3919 21.4205 22.7044 21.5602 23.153 21.7033C23.6017 21.8473 23.9692 22.0027 24.2572 22.1694C24.9582 22.5727 25.3082 23.1296 25.3082 23.8392C25.3082 24.4066 25.0952 24.8518 24.6675 25.1756C24.2398 25.4995 23.6532 25.6609 22.9086 25.6609C22.3823 25.6609 21.9074 25.5658 21.4806 25.3781C21.0546 25.1896 20.7343 24.9312 20.5187 24.6039C20.3031 24.2757 20.1957 23.8977 20.1957 23.47H21.7634C21.7634 23.8174 21.8533 24.0732 22.0331 24.2382C22.2121 24.404 22.5036 24.4852 22.9086 24.4852C23.167 24.4852 23.3713 24.4302 23.5214 24.3185C23.6715 24.2059 23.7457 24.0496 23.7457 23.8488L23.744 23.8497Z" fill="#0079CF"/>
<path d="M32 25.4846H30.4463V22.7769H28.1437V25.4846H26.5803V19H28.1437V21.5741H30.4463V19H32V25.4846Z" fill="#0079CF"/>
</g>
<defs>
<clipPath id="clip0_25_28">
<rect width="32" height="32" fill="white"/>
</clipPath>
</defs>
</svg>
