<svg width="500" height="500" viewBox="0 0 500 500" fill="none" xmlns="http://www.w3.org/2000/svg">
<rect width="500" height="500" fill="white"/>
<path d="M458 242.523H387.244V12H458V242.523Z" fill="#00B4D5"/>
<path fill-rule="evenodd" clip-rule="evenodd" d="M398.78 153.882V141.484C403.6 142.277 413.288 143.516 422.314 143.516C431.407 143.516 441.784 141.949 446.97 140.959V153.911C443.138 153.124 434.38 151.921 422.314 151.921C410.394 151.921 402.288 153.095 398.78 153.882ZM422.314 141.274C429.113 141.274 436.684 140.375 442.154 139.516C441.619 139.445 441.045 139.375 440.43 139.306C436.285 138.844 430.351 138.472 422.314 138.472C414.278 138.472 408.533 138.845 404.627 139.305C403.577 139.429 402.662 139.559 401.874 139.689C407.031 140.423 414.913 141.274 422.314 141.274ZM422.314 136.231C414.213 136.231 408.378 136.606 404.364 137.079C402.358 137.316 400.798 137.578 399.633 137.833C398.494 138.082 397.662 138.339 397.158 138.591L396.538 138.9V139.593V140.153V181.059V181.073L396.539 181.086C396.726 188.758 397.203 200.991 398.026 212.769C398.846 224.506 400.018 235.918 401.62 241.868L401.843 242.698H402.702H442.487H443.337L443.566 241.879C444.913 237.07 447.866 218.311 449.211 181.1L449.211 181.079V181.059V139.593V138.834L448.507 138.553C447.421 138.118 444.881 137.546 440.678 137.078C436.436 136.606 430.417 136.231 422.314 136.231ZM398.778 155.284C401.316 156.696 409.997 159.722 423.45 159.722C436.915 159.722 444.831 156.692 446.969 155.319V156.781C443.483 158.494 435.546 160.887 423.45 160.887C411.08 160.887 402.494 158.385 398.778 156.694V155.284ZM401.389 194.776C402.148 208.42 403.312 229.348 405.503 233.732C406.624 235.973 416.15 237.094 420.633 235.413C422.572 234.685 421.32 233.683 419.018 231.839C416.298 229.66 412.111 226.306 409.986 220.843C408.051 215.867 405.679 205.228 403.853 197.039C401.979 188.629 400.68 182.803 401.021 188.343C401.133 190.17 401.255 192.359 401.389 194.776Z" fill="#99E1EF"/>
<path d="M226.841 12L261.033 144.938L293.36 12H347.523L286.35 242.523H226.891L194.665 115.385L164.204 242.523H102.224L41 12H107.57L139.846 144.686L171.265 12H226.841Z" fill="#00B4D5"/>
<path fill-rule="evenodd" clip-rule="evenodd" d="M210.777 178.954L226.89 242.523H279.403C280.999 236.043 283.632 224.765 274.106 207.955C271.628 203.583 268.587 199.619 265.684 195.835L265.683 195.833L265.682 195.833C259.148 187.316 253.313 179.711 256.174 170.411C260.657 155.842 269.919 145.756 272.425 145.756C272.857 145.756 272.95 146.083 273.128 146.713C273.412 147.716 273.913 149.486 276.347 151.919C280.27 155.842 297.124 167.73 299.321 168.17C301.888 168.683 300.379 165.747 299.533 164.102C299.456 163.952 299.384 163.812 299.321 163.687C297.802 161.154 295.572 157.957 293.544 155.049C291.084 151.522 288.92 148.419 288.675 147.437C288.315 145.998 289.109 144.329 289.873 142.726L289.873 142.724L289.874 142.722L289.874 142.722C290.3 141.828 290.716 140.954 290.916 140.152C290.945 140.037 290.978 139.909 291.014 139.769C291.686 137.173 293.431 130.425 288.114 126.704C283.063 123.167 273.912 123.73 266.821 128.392L264.667 129.992L261.033 144.937L258.649 135.669C249.869 145.531 242.703 155.292 241.045 170.411C239.717 182.517 243.368 196.093 249.528 206.583C253.033 212.549 259.022 222.745 253.933 226.446C247.769 230.929 242.166 219.162 239.364 212.437L239.359 212.426L239.359 212.425C236.551 205.686 227.569 184.131 210.777 178.954ZM285.168 142.064C285.168 142.993 284.416 143.745 283.487 143.745C282.559 143.745 281.806 142.993 281.806 142.064C281.806 141.136 282.559 140.383 283.487 140.383C284.416 140.383 285.168 141.136 285.168 142.064ZM150.829 242.522H164.205L180.005 176.574C179.245 176.388 176.606 176.35 174.364 177.695C171.562 179.376 172.683 181.057 176.045 182.738C177.166 183.299 177.166 186.1 173.243 184.419C172.023 183.896 171.074 183.374 170.278 182.935C168.515 181.964 167.503 181.406 165.959 182.178C164.465 182.925 166.457 184.668 168.449 186.412C169.446 187.283 170.442 188.155 171.002 188.902C173.155 191.772 171.002 193.945 168.2 191.704C165.399 189.462 163.347 188.294 160.916 188.902C158.674 189.463 158.114 192.264 161.476 195.066C166.346 199.124 167.64 204.032 162.036 204.592C147.54 206.042 145.786 212.437 146.347 220.282C146.853 227.367 156.5 230.796 161.666 232.632C162.22 232.828 162.723 233.007 163.157 233.17C166.519 234.851 163.717 236.532 158.114 236.532C152.51 236.532 150.829 234.851 149.709 233.73C149.475 233.496 149.241 233.214 149.017 232.943C148.169 231.918 147.467 231.07 147.467 233.73C147.467 236.42 149.709 240.712 150.829 242.522Z" fill="#99E1EF"/>
<path d="M456.965 257.981V311.186H352.925V344.622H437.045V395.811H352.925V433.483H456.965V488.504H283.531V257.981H456.965Z" fill="#00B4D5"/>
<path fill-rule="evenodd" clip-rule="evenodd" d="M397.001 307.05C397.739 307.959 398.161 309.295 398.345 311.185H361.586C361.77 309.295 362.191 307.959 362.93 307.05C364.015 305.714 365.657 305.442 367.638 305.442H370.408C370.341 302.843 371.233 300.514 372.386 298.647C373.541 296.778 374.976 295.34 376.043 294.515V291.973C370.872 290.398 367.022 285.793 366.563 280.226L358.112 280.226C356.617 282.467 352.172 286.95 346.344 286.95C339.06 286.95 335.137 283.028 335.137 276.864C335.137 270.7 340.741 267.898 346.344 267.898C350.827 267.898 356.057 271.634 358.112 273.502L367.736 273.502C369.861 268.872 374.538 265.657 379.965 265.657C386.629 265.657 392.161 270.503 393.228 276.864H401.819C403.313 274.622 407.759 270.14 413.586 270.14C420.871 270.14 424.793 274.062 424.793 280.226C424.793 286.39 419.19 289.191 413.586 289.191C409.104 289.191 403.874 285.456 401.819 283.588H392.648C391.232 287.594 387.972 290.729 383.888 291.973V294.515C384.954 295.34 386.39 296.778 387.544 298.647C388.698 300.514 389.59 302.843 389.522 305.442H392.293C394.273 305.442 395.916 305.714 397.001 307.05ZM352.925 328.416H327.292C310.706 328.416 305.065 336.635 304.318 340.744V388.934C301.516 388.934 299.275 389.718 299.275 392.857C299.275 395.995 301.516 396.779 304.878 396.779H336.258C339.06 396.779 340.741 395.546 340.741 392.857C340.741 390.167 339.06 388.934 336.258 388.934V364.279H437.045V344.621H352.925V328.416ZM309.361 442.052C309.361 433.472 320.471 410.987 321.597 408.73C321.638 408.647 321.739 408.647 321.781 408.73C322.907 410.987 334.016 433.472 334.016 442.052C334.016 451.091 328.497 458.418 321.689 458.418C314.88 458.418 309.361 451.091 309.361 442.052ZM456.966 309.967V311.185H444.295C445.828 308.092 448.091 304.881 450.57 304.881C452.802 304.881 455.151 307.343 456.966 309.967ZM326.594 451.905C327.448 452.27 328.633 451.413 329.242 449.99C329.85 448.567 329.652 447.118 328.798 446.753C327.945 446.388 326.759 447.245 326.151 448.667C325.542 450.09 325.74 451.539 326.594 451.905Z" fill="#99E1EF"/>
<path d="M145.66 337.917C172.585 343.558 191.639 348.511 202.961 352.913C214.283 357.316 223.672 364.746 231.404 375.34C238.998 385.933 242.727 398.454 242.727 412.762C242.727 435.326 233.614 453.762 215.112 467.796C196.61 481.829 172.447 488.846 142.485 488.846C87.6691 488.846 53.8409 466.145 41 420.604L105.067 409.185C110.451 427.208 124.397 436.289 146.627 436.289C163.886 436.289 172.585 431.749 172.585 422.531C172.585 417.715 170.514 413.863 166.51 411.249C162.505 408.497 155.326 406.158 144.97 404.094C105.481 396.527 80.2131 386.621 69.0291 374.514C57.8451 362.407 52.184 348.098 52.184 331.726C52.184 310.538 60.3304 293.065 76.347 279.031C92.5017 264.998 115.56 257.981 145.798 257.981C191.501 257.981 221.739 276.417 236.513 313.014L179.35 330.212C173.413 315.216 161.401 307.786 143.313 307.786C128.263 307.786 120.807 312.326 120.807 321.682C120.807 325.81 122.464 328.974 125.916 331.313C129.229 333.652 135.857 335.853 145.66 337.917Z" fill="#00B4D5"/>
<path fill-rule="evenodd" clip-rule="evenodd" d="M136.678 402.428C133.99 401.86 131.375 401.281 128.833 400.69V356.603H118.187V348.758H128.833V343.715H136.678V348.758H190.543C195.395 350.197 199.533 351.581 202.962 352.914C205.676 353.969 208.279 355.198 210.774 356.603H191.2L184.389 369.026C188.772 369.723 192.153 374.182 192.153 379.578C192.153 382.426 191.211 385.013 189.677 386.924L192.058 431.691H205.041L204.819 433.378L204.876 433.483L204.961 433.641C205.011 433.733 205.063 433.83 205.117 433.932C205.258 434.195 205.413 434.49 205.575 434.807C206.211 436.052 206.968 437.687 207.404 439.321C207.833 440.93 207.987 442.67 207.25 444.031C206.572 445.283 205.236 446.06 203.128 446.226L202.239 452.984H229.136V372.381C229.908 373.339 230.664 374.325 231.405 375.34C233.58 378.374 235.437 381.565 236.981 384.911V441.108C232.426 451.271 225.152 460.182 215.113 467.796C196.611 481.83 172.448 488.846 142.485 488.846C137.78 488.846 133.229 488.679 128.833 488.344V466.432H120.428V452.984H128.833V433.831C131.28 434.605 133.895 435.197 136.678 435.605V452.984H164.936L169.221 430.664C169.779 430.138 170.267 429.576 170.686 428.977L166.077 452.984H182.627L179.825 431.691H190.936L188.615 388.053C187.108 389.415 185.227 390.225 183.187 390.225C181.443 390.225 179.814 389.633 178.437 388.609L172.394 420.082C172.252 419.207 172.032 418.371 171.734 417.575L177.458 387.767C175.48 385.814 174.222 382.87 174.222 379.578C174.222 374.134 177.662 369.645 182.101 369.008L176.497 356.603H136.678V402.428ZM177.727 356.603L183.236 368.798L189.922 356.603H177.727ZM203.278 445.088C204.989 444.906 205.849 444.265 206.264 443.498C206.788 442.53 206.732 441.152 206.321 439.61C205.916 438.092 205.202 436.54 204.577 435.316L204.567 435.296L203.278 445.088Z" fill="#99E1EF"/>
</svg>
